<?xml version="1.0" encoding="UTF-8" ?>
<!DOCTYPE svg PUBLIC "-//W3C//DTD SVG 1.1//EN" "http://www.w3.org/Graphics/SVG/1.1/DTD/svg11.dtd">
<svg width="64pt" height="64pt" viewBox="0 0 64 64" version="1.1" xmlns="http://www.w3.org/2000/svg">
<g id="#ccccccff">
<path fill="#cccccc" opacity="1.00" d=" M 49.42 0.00 L 50.30 0.00 C 57.50 0.19 63.78 6.39 64.00 13.60 L 64.00 14.48 C 63.80 18.24 62.21 21.85 59.49 24.47 C 47.85 36.16 36.14 47.79 24.51 59.49 C 23.52 60.58 21.75 62.06 20.44 60.49 C 15.49 55.75 10.76 50.78 5.88 45.98 C 5.24 50.65 4.62 55.33 4.00 60.00 C 7.31 59.62 10.59 58.89 13.93 58.81 C 15.97 58.56 16.52 61.91 14.36 62.17 C 9.93 63.11 5.38 63.63 0.86 63.88 C 0.64 63.45 0.21 62.59 0.00 62.16 L 0.00 61.96 C 0.77 56.26 1.59 50.57 2.28 44.86 C 2.56 43.20 2.57 41.27 3.94 40.07 C 15.79 28.21 27.65 16.36 39.53 4.52 C 42.13 1.84 45.69 0.20 49.42 0.00 M 43.20 6.03 C 48.11 10.97 53.04 15.89 57.97 20.80 C 60.88 16.89 61.04 11.06 57.67 7.38 C 54.17 3.10 47.50 2.75 43.20 6.03 M 7.16 42.06 C 9.21 44.12 11.26 46.17 13.32 48.22 C 24.46 37.07 35.61 25.93 46.75 14.78 C 44.70 12.74 42.65 10.70 40.59 8.66 C 29.45 19.80 18.30 30.92 7.16 42.06 M 15.94 50.80 C 17.93 52.82 19.93 54.84 21.94 56.84 C 33.09 45.70 44.23 34.56 55.37 23.41 C 53.36 21.40 51.35 19.40 49.34 17.41 C 38.21 28.53 27.09 39.68 15.94 50.80 Z" />
</g>
</svg>
