<?xml version="1.0" encoding="UTF-8" ?>
<!DOCTYPE svg PUBLIC "-//W3C//DTD SVG 1.1//EN" "http://www.w3.org/Graphics/SVG/1.1/DTD/svg11.dtd">
<svg width="256pt" height="256pt" viewBox="0 0 256 256" version="1.1" xmlns="http://www.w3.org/2000/svg">
<g id="#ccccccff">
<path fill="#cccccc" opacity="1.00" d=" M 10.37 0.00 L 181.42 0.00 C 187.11 0.22 192.01 5.08 191.93 10.83 C 192.12 30.89 191.92 50.95 192.02 71.00 C 192.00 74.35 192.02 78.05 189.87 80.84 C 186.67 85.61 179.36 86.64 174.92 83.03 C 171.74 80.76 170.59 76.72 170.69 72.97 C 170.68 55.76 170.69 38.55 170.69 21.35 C 141.61 21.37 112.54 21.28 83.47 21.39 C 95.79 25.11 108.16 28.68 120.44 32.52 C 125.27 33.99 128.40 38.95 127.99 43.94 C 128.01 100.40 127.99 156.87 128.00 213.34 C 142.23 213.34 156.47 213.35 170.70 213.33 C 170.73 195.56 170.58 177.79 170.77 160.02 C 170.61 153.80 176.75 148.45 182.89 149.61 C 188.36 150.22 192.20 155.59 191.97 160.91 C 192.04 181.28 191.97 201.66 192.00 222.03 C 192.10 225.72 191.08 229.70 188.08 232.09 C 185.62 234.34 182.13 234.66 178.95 234.67 C 161.97 234.64 144.99 234.66 128.00 234.66 C 127.86 239.06 128.35 243.51 127.66 247.88 C 126.64 252.54 122.17 255.68 117.56 256.00 L 116.61 256.00 C 80.75 248.93 44.92 241.74 9.09 234.53 C 4.13 233.69 0.33 229.30 0.00 224.31 L 0.00 10.29 C 0.37 4.80 4.99 0.50 10.37 0.00 Z" />
<path fill="#cccccc" opacity="1.00" d=" M 207.55 76.56 C 211.85 73.46 218.02 74.66 221.50 78.44 C 231.71 88.59 241.88 98.79 252.06 108.98 C 254.33 111.19 255.73 114.13 256.00 117.29 L 256.00 117.50 C 255.69 120.71 254.17 123.66 251.85 125.89 C 242.03 135.74 232.17 145.55 222.35 155.41 C 220.31 157.37 217.97 159.34 215.06 159.72 C 209.56 160.84 203.75 156.63 202.95 151.12 C 202.17 147.51 203.81 143.89 206.31 141.35 C 210.65 136.83 215.19 132.48 219.58 128.01 C 200.04 127.97 180.49 128.04 160.95 127.97 C 155.59 128.22 150.21 124.35 149.61 118.86 C 148.46 112.69 153.86 106.60 160.09 106.73 C 179.92 106.55 199.75 106.72 219.58 106.65 C 214.82 101.68 209.65 97.10 205.14 91.91 C 201.16 87.39 202.44 79.68 207.55 76.56 Z" />
</g>
</svg>
