<?xml version="1.0" encoding="UTF-8" ?>
<!DOCTYPE svg PUBLIC "-//W3C//DTD SVG 1.1//EN" "http://www.w3.org/Graphics/SVG/1.1/DTD/svg11.dtd">
<svg width="578pt" height="262pt" viewBox="0 0 578 262" version="1.1" xmlns="http://www.w3.org/2000/svg">
<g id="#fe181aff">
<path fill="#fe181a" opacity="1.00" d=" M 0.93 3.07 C 1.97 0.25 5.52 0.33 8.01 0.32 C 13.99 0.48 20.03 -0.13 25.98 0.68 C 29.01 1.20 30.26 5.76 27.76 7.66 C 21.59 9.10 15.20 8.37 8.94 8.21 C 8.26 14.30 9.20 20.49 8.26 26.54 C 7.28 29.79 2.35 30.02 1.03 26.91 C 0.16 24.03 0.42 20.97 0.32 18.00 C 0.36 13.02 -0.02 7.98 0.93 3.07 Z" />
<path fill="#fe181a" opacity="1.00" d=" M 549.61 2.59 C 551.39 -0.24 555.12 0.34 557.97 0.36 C 564.38 0.77 571.01 -0.53 577.19 1.75 C 577.63 9.83 578.12 17.96 577.17 26.02 C 577.07 29.54 571.01 30.41 570.11 26.95 C 568.70 20.82 569.99 14.46 569.17 8.26 C 563.44 8.25 557.68 8.72 551.96 8.12 C 549.40 8.02 548.03 4.52 549.61 2.59 Z" />
<path fill="#fe181a" opacity="1.00" d=" M 345.53 12.02 C 347.86 11.37 350.19 10.72 352.52 10.10 C 353.99 16.56 353.29 23.49 349.94 29.27 C 356.23 33.35 363.08 37.45 366.61 44.37 C 370.43 51.07 370.23 59.76 366.45 66.43 C 365.58 68.21 363.33 68.17 361.72 68.86 C 359.04 76.66 355.26 84.13 350.01 90.53 C 347.60 88.03 345.25 85.50 342.95 82.92 C 344.20 77.96 345.06 72.89 345.00 67.76 C 343.42 67.88 341.85 68.00 340.28 68.13 C 339.57 71.01 338.90 73.90 338.24 76.78 C 334.01 72.35 329.95 67.75 326.20 62.91 C 330.36 60.24 335.03 58.04 338.20 54.11 C 342.96 48.05 341.78 38.05 335.50 33.48 C 326.93 27.85 313.66 32.95 311.45 43.06 C 309.72 49.25 312.26 55.67 316.83 59.93 C 311.02 64.24 304.59 68.90 302.36 76.13 C 300.31 83.41 302.47 92.72 309.47 96.56 C 314.83 98.96 321.12 99.53 326.79 97.89 C 332.20 96.28 336.27 92.15 339.98 88.11 C 341.88 90.43 343.75 92.77 345.59 95.15 C 337.92 103.06 327.25 108.79 315.97 107.94 C 312.26 107.34 310.24 110.91 307.49 112.64 C 305.52 112.78 303.87 111.50 302.19 110.69 C 302.09 107.25 303.32 103.25 300.68 100.45 C 296.04 95.02 293.06 88.26 292.45 81.12 C 290.78 66.84 295.60 52.54 303.41 40.71 C 303.05 39.15 302.43 37.61 302.49 35.99 C 305.61 27.23 314.66 21.01 323.96 21.19 C 330.93 20.83 337.34 23.91 343.79 26.09 C 345.96 21.75 347.13 16.77 345.53 12.02 Z" />
<path fill="#fe181a" opacity="1.00" d=" M 213.38 41.73 C 230.85 39.25 248.52 38.49 266.03 36.26 C 269.37 35.24 271.20 39.20 270.63 41.96 C 269.02 57.12 269.21 72.40 267.80 87.58 C 266.76 99.66 266.81 111.83 265.35 123.88 C 265.01 127.16 260.09 128.36 258.15 125.74 C 257.50 124.26 257.77 122.60 257.76 121.04 C 259.36 95.76 261.08 70.49 262.07 45.19 C 246.99 46.47 231.87 47.52 216.90 49.76 C 215.66 75.20 213.87 100.60 212.42 126.03 C 212.35 128.38 211.37 131.13 208.90 131.88 C 207.35 132.11 205.16 131.80 204.75 129.97 C 204.35 128.02 204.51 126.01 204.59 124.04 C 206.15 98.67 207.54 73.29 209.08 47.92 C 209.12 45.30 210.34 41.95 213.38 41.73 Z" />
<path fill="#fe181a" opacity="1.00" d=" M 322.50 37.72 C 327.47 34.40 335.48 37.70 335.48 44.00 C 336.42 51.11 329.55 56.54 323.06 57.17 C 318.76 56.15 316.28 51.16 316.45 47.01 C 316.72 43.15 319.13 39.56 322.50 37.72 Z" />
<path fill="#fe181a" opacity="1.00" d=" M 187.37 44.17 C 189.96 42.92 194.18 44.59 193.62 47.92 C 192.24 75.32 190.47 102.71 188.77 130.09 C 188.73 133.76 184.39 134.83 181.52 133.65 C 180.48 127.45 181.42 121.19 181.72 114.97 C 182.70 103.86 182.95 92.70 183.79 81.58 C 184.22 75.44 184.93 69.27 184.23 63.12 C 180.14 67.23 177.22 72.26 173.94 77.00 C 160.41 96.46 146.93 115.95 133.48 135.46 C 132.06 137.48 130.20 139.89 127.44 139.70 C 126.13 138.95 124.90 137.69 125.01 136.07 C 124.81 127.03 126.17 118.06 126.59 109.05 C 127.19 91.32 128.55 73.63 129.55 55.92 C 129.94 53.69 129.67 50.32 132.38 49.53 C 134.66 48.61 138.20 50.02 137.58 52.92 C 136.76 75.05 134.41 97.10 134.19 119.25 C 135.90 117.60 137.58 115.89 138.93 113.91 C 153.78 92.11 168.84 70.45 183.68 48.64 C 184.80 47.06 185.89 45.43 187.37 44.17 Z" />
<path fill="#fe181a" opacity="1.00" d=" M 108.74 51.68 C 110.39 50.79 112.22 51.72 113.89 52.06 C 114.66 57.02 113.68 61.98 113.52 66.94 C 112.39 89.67 110.89 112.38 109.52 135.10 C 109.37 137.65 108.89 141.17 105.85 141.77 C 103.54 142.62 101.30 140.32 101.65 138.03 C 101.66 129.38 103.20 120.78 102.71 112.12 C 90.26 113.55 77.42 117.88 65.01 113.98 C 58.54 112.14 54.18 105.64 54.58 98.97 C 54.86 86.01 55.64 73.06 56.75 60.15 C 56.74 57.19 60.12 55.09 62.81 56.21 C 65.03 57.68 64.48 60.64 64.38 62.90 C 63.42 72.92 63.26 82.99 62.52 93.02 C 62.34 96.97 62.24 101.67 65.39 104.57 C 69.20 107.57 74.35 107.78 79.00 107.72 C 87.29 107.40 95.49 105.84 103.47 103.63 C 104.91 87.75 105.03 71.78 106.47 55.90 C 106.64 54.30 107.23 52.49 108.74 51.68 Z" />
<path fill="#fe181a" opacity="1.00" d=" M 307.35 81.03 C 307.64 73.78 313.26 67.39 320.01 65.18 C 322.23 65.63 323.41 67.72 324.75 69.33 C 328.31 74.34 332.90 78.58 335.86 84.01 C 331.92 92.14 321.16 96.06 313.04 91.95 C 308.93 90.08 307.36 85.24 307.35 81.03 Z" />
<path fill="#fe181a" opacity="1.00" d=" M 430.11 99.82 C 431.78 99.93 433.46 100.05 435.15 100.16 C 435.22 107.11 428.80 111.76 422.83 113.74 C 415.84 115.94 406.58 115.62 402.03 109.03 C 399.73 106.40 402.66 101.63 405.96 102.43 C 407.70 103.51 409.15 104.99 410.75 106.28 C 413.57 109.01 417.99 108.60 421.45 107.50 C 425.04 105.86 427.23 102.37 430.11 99.82 Z" />
<path fill="#fe181a" opacity="1.00" d=" M 492.29 121.29 C 493.22 119.27 494.46 116.84 496.97 116.61 C 499.49 116.64 500.99 119.08 501.80 121.17 C 511.28 145.88 520.95 170.53 530.61 195.17 C 531.32 197.41 532.68 200.05 531.24 202.29 C 529.86 204.96 525.27 204.60 524.47 201.65 C 515.95 179.64 507.65 157.53 499.29 135.46 C 498.76 133.85 497.76 132.48 496.31 131.60 C 490.47 142.93 485.79 154.82 480.51 166.42 C 474.76 179.69 468.79 192.87 463.10 206.16 C 462.14 208.25 460.67 210.71 457.97 210.35 C 455.64 210.71 453.78 208.25 454.49 206.09 C 455.21 203.48 456.48 201.07 457.58 198.61 C 469.24 172.88 480.69 147.05 492.29 121.29 Z" />
<path fill="#fe181a" opacity="1.00" d=" M 441.28 122.10 C 443.24 122.06 445.21 122.02 447.18 121.98 C 447.76 129.00 447.09 136.03 446.85 143.06 C 446.05 162.37 444.89 181.66 444.15 200.97 C 443.94 204.21 444.05 207.58 442.83 210.65 C 441.49 212.63 438.68 212.02 436.66 212.52 C 436.24 209.67 435.88 206.81 436.02 203.93 C 436.63 192.28 437.10 180.62 437.46 168.96 C 437.96 159.19 439.13 149.43 438.56 139.64 C 434.84 143.69 432.06 148.45 428.94 152.96 C 415.66 172.66 402.16 192.22 388.99 212.00 C 387.19 214.53 385.07 218.45 381.36 217.65 C 378.87 216.45 379.19 213.32 379.23 211.02 C 380.50 187.69 381.37 164.34 382.66 141.02 C 382.92 137.01 382.31 132.74 383.98 128.97 C 385.39 126.49 388.66 127.64 390.95 127.70 C 390.79 150.69 388.39 173.61 388.36 196.60 C 392.15 194.22 394.03 190.07 396.49 186.52 C 409.12 168.41 421.47 150.11 434.13 132.01 C 436.40 128.63 438.59 125.18 441.28 122.10 Z" />
<path fill="#fe181a" opacity="1.00" d=" M 333.00 132.01 C 343.83 131.43 354.56 129.11 365.44 129.93 C 365.65 132.80 365.10 136.90 361.52 137.24 C 348.88 138.91 336.08 139.17 323.48 141.20 C 322.88 151.81 322.29 162.41 322.10 173.03 C 334.13 172.43 346.00 169.63 358.09 170.18 C 359.28 172.98 358.39 177.18 354.91 177.61 C 343.79 179.05 332.58 179.76 321.48 181.41 C 321.01 192.87 320.05 204.33 320.22 215.82 C 325.82 215.22 331.40 214.34 337.04 214.05 C 345.77 213.60 354.39 211.74 363.16 211.99 C 363.14 213.94 363.30 215.91 362.91 217.83 C 361.63 219.84 359.04 219.93 356.93 220.21 C 342.15 221.55 327.41 223.31 312.59 224.24 C 311.07 218.24 312.27 212.09 312.43 206.02 C 313.18 184.98 314.64 163.98 315.34 142.95 C 315.35 139.90 316.12 136.95 317.03 134.06 C 322.33 133.21 327.64 132.33 333.00 132.01 Z" />
<path fill="#fe181a" opacity="1.00" d=" M 254.28 143.23 C 255.23 141.32 256.50 138.84 259.02 138.97 C 260.99 138.83 262.12 140.66 262.82 142.21 C 272.93 167.35 282.88 192.57 293.16 217.64 C 295.39 217.73 297.64 217.70 299.84 218.15 C 302.92 220.38 300.78 225.92 297.08 225.81 C 268.37 228.38 239.70 231.50 210.98 233.92 C 210.29 232.08 208.45 230.05 209.93 228.12 C 211.70 225.37 215.61 225.89 218.03 224.06 C 220.36 221.06 221.27 217.25 222.87 213.86 C 233.43 190.36 243.68 166.72 254.28 143.23 M 252.31 167.28 C 245.35 182.98 238.35 198.66 231.30 214.32 C 229.97 217.17 228.95 220.16 228.04 223.17 C 229.99 223.79 232.04 223.90 234.07 223.62 C 245.02 222.40 256.04 221.96 266.98 220.64 C 272.68 219.93 278.54 220.22 284.05 218.40 C 281.33 209.90 277.51 201.82 274.53 193.41 C 269.18 180.17 264.50 166.65 258.67 153.60 C 256.16 157.97 254.26 162.64 252.31 167.28 Z" />
<path fill="#fe181a" opacity="1.00" d=" M 1.43 234.30 C 3.61 232.43 8.11 233.08 8.42 236.35 C 9.02 242.14 8.41 247.97 8.81 253.78 C 14.54 253.78 20.31 253.19 26.00 253.97 C 29.36 254.44 30.20 259.90 26.88 261.14 C 24.35 262.01 21.61 261.63 18.98 261.70 C 13.68 261.52 8.34 262.17 3.09 261.36 C 0.10 260.28 0.37 256.55 0.30 253.97 C 0.62 247.42 -0.51 240.67 1.43 234.30 Z" />
<path fill="#fe181a" opacity="1.00" d=" M 569.51 236.95 C 569.24 233.17 575.32 231.87 576.91 235.10 C 578.30 241.65 577.43 248.39 577.62 255.02 C 577.67 257.51 577.22 261.39 574.02 261.53 C 566.69 261.76 559.32 261.97 552.01 261.41 C 548.13 261.12 548.14 254.40 551.94 253.97 C 557.78 253.23 563.69 253.82 569.56 253.64 C 569.42 248.08 568.95 242.50 569.51 236.95 Z" />
</g>
</svg>
