<?xml version="1.0" encoding="UTF-8" ?>
<!DOCTYPE svg PUBLIC "-//W3C//DTD SVG 1.1//EN" "http://www.w3.org/Graphics/SVG/1.1/DTD/svg11.dtd">
<svg width="256pt" height="256pt" viewBox="0 0 256 256" version="1.1" xmlns="http://www.w3.org/2000/svg">
<g id="#ccccccff">
<path fill="#cccccc" opacity="1.00" d=" M 90.23 55.27 C 141.47 55.00 192.72 55.25 243.97 55.14 C 246.06 55.17 248.86 54.86 250.01 57.07 C 251.61 59.48 249.27 61.92 247.54 63.47 C 224.04 83.99 200.52 104.49 177.02 125.01 C 174.67 127.02 172.35 129.53 169.09 129.87 C 166.06 130.43 163.15 129.00 160.95 127.02 C 137.88 107.12 114.81 87.20 91.73 67.30 C 89.63 65.41 87.02 63.74 86.10 60.93 C 85.33 58.23 87.45 55.37 90.23 55.27 Z" />
<path fill="#cccccc" opacity="1.00" d=" M 245.05 88.03 C 247.09 86.36 249.00 83.92 251.90 83.99 C 254.66 84.32 255.85 87.14 256.00 89.61 L 256.00 189.28 C 255.65 191.83 255.10 194.46 253.43 196.50 C 251.08 199.74 246.91 200.86 243.08 200.84 C 193.71 200.85 144.34 200.83 94.97 200.85 C 91.49 200.88 87.75 200.30 85.12 197.82 C 82.00 195.19 81.08 190.96 81.15 187.05 C 81.16 155.66 81.15 124.28 81.15 92.90 C 81.23 90.58 81.27 87.80 83.39 86.33 C 85.36 84.90 87.96 85.98 89.60 87.40 C 113.79 108.51 137.88 129.74 162.08 150.84 C 165.23 153.93 170.56 153.89 173.65 150.73 C 197.47 129.86 221.27 108.95 245.05 88.03 Z" />
<path fill="#cccccc" opacity="1.00" d=" M 34.29 93.40 C 41.16 93.20 48.04 93.34 54.92 93.33 C 57.92 93.25 61.01 95.01 61.97 97.95 C 62.64 100.55 62.57 103.30 62.28 105.96 C 62.00 109.48 58.56 112.16 55.10 111.99 C 48.35 112.05 41.59 112.08 34.84 111.97 C 31.49 112.05 28.22 109.42 27.91 106.03 C 27.64 103.69 27.61 101.31 27.97 98.98 C 28.40 95.93 31.25 93.55 34.29 93.40 Z" />
<path fill="#cccccc" opacity="1.00" d=" M 19.11 124.14 C 29.36 123.45 39.69 124.04 49.97 123.84 C 53.42 123.97 57.56 123.14 60.27 125.85 C 63.00 128.40 62.49 132.51 62.36 135.89 C 62.34 139.76 58.68 142.74 54.93 142.54 C 43.66 142.57 32.39 142.60 21.12 142.53 C 17.09 142.68 13.59 139.08 13.89 135.05 C 13.34 130.85 14.22 125.21 19.11 124.14 Z" />
<path fill="#cccccc" opacity="1.00" d=" M 0.00 161.29 C 0.11 157.54 3.32 154.31 7.12 154.42 C 22.06 154.28 37.01 154.44 51.96 154.35 C 54.66 154.39 57.75 154.14 59.93 156.08 C 63.11 158.68 62.54 163.28 62.29 166.93 C 62.03 170.51 58.57 173.24 55.05 173.05 C 39.02 173.10 22.99 173.16 6.96 173.02 C 3.27 173.12 0.23 169.93 0.00 166.34 L 0.00 161.29 Z" />
</g>
</svg>
