<?xml version="1.0" encoding="UTF-8" ?>
<!DOCTYPE svg PUBLIC "-//W3C//DTD SVG 1.1//EN" "http://www.w3.org/Graphics/SVG/1.1/DTD/svg11.dtd">
<svg width="256pt" height="256pt" viewBox="0 0 256 256" version="1.1" xmlns="http://www.w3.org/2000/svg">
<g id="#c6c6c6ff">
<path fill="#c6c6c6" opacity="1.00" d=" M 125.58 0.00 L 130.21 0.00 C 142.57 0.41 155.83 3.07 164.98 12.02 C 172.96 19.53 176.28 30.45 178.01 40.96 C 179.90 55.53 180.70 70.75 176.12 84.93 C 171.43 99.98 161.30 113.89 146.86 120.81 C 135.40 126.43 121.45 126.59 109.89 121.16 C 95.81 114.75 85.68 101.61 80.64 87.22 C 75.27 72.42 75.97 56.30 78.00 40.95 C 79.72 30.44 83.04 19.54 91.01 12.02 C 100.11 3.12 113.29 0.45 125.58 0.00 Z" />
<path fill="#c6c6c6" opacity="1.00" d=" M 68.81 137.92 C 78.76 134.09 89.34 132.42 99.69 130.03 C 106.09 136.46 114.94 140.00 123.92 140.57 C 135.51 141.59 147.96 138.53 156.30 130.04 C 169.56 132.94 183.18 135.24 195.40 141.46 C 203.82 145.54 211.26 151.92 215.78 160.19 C 220.09 168.14 222.25 177.10 223.14 186.05 C 224.96 199.65 225.20 213.41 225.26 227.10 C 220.74 234.33 212.97 238.64 205.67 242.58 C 182.01 253.54 155.45 255.51 129.74 256.00 L 125.35 256.00 C 100.19 255.46 74.25 253.44 51.03 242.92 C 43.82 239.24 36.53 234.98 31.54 228.44 C 30.02 226.66 30.83 224.15 30.65 222.03 C 31.17 210.38 31.02 198.65 32.74 187.09 C 33.80 175.93 36.61 164.51 43.35 155.34 C 49.59 146.86 59.09 141.49 68.81 137.92 Z" />
</g>
</svg>
