<?xml version="1.0" encoding="UTF-8" ?>
<!DOCTYPE svg PUBLIC "-//W3C//DTD SVG 1.1//EN" "http://www.w3.org/Graphics/SVG/1.1/DTD/svg11.dtd">
<svg width="256pt" height="256pt" viewBox="0 0 256 256" version="1.1" xmlns="http://www.w3.org/2000/svg">
<g id="#ccccccff">
<path fill="#cccccc" opacity="1.00" d=" M 13.95 0.00 L 100.98 0.00 C 108.45 -0.08 114.98 6.64 114.67 14.10 C 114.70 42.74 114.69 71.38 114.68 100.03 C 115.12 108.31 107.21 115.27 99.06 114.26 C 70.70 114.21 42.33 114.31 13.97 114.21 C 7.30 114.25 1.28 108.76 0.51 102.16 C 0.38 94.41 0.13 78.92 0.00 71.17 L 0.00 51.00 L 0.54 37.44 C 2.46 27.87 -2.13 17.16 1.77 7.84 C 4.00 3.23 8.83 0.13 13.95 0.00 Z" />
<path fill="#cccccc" opacity="1.00" d=" M 154.87 0.00 L 241.88 0.00 C 247.23 0.06 252.34 3.40 254.44 8.33 C 257.59 19.99 253.97 32.45 256.00 44.34 L 256.00 64.14 C 255.89 73.51 255.66 92.25 255.55 101.62 C 255.12 108.88 248.19 114.67 241.04 114.24 C 212.35 114.23 183.65 114.30 154.96 114.21 C 147.78 114.34 141.37 108.00 141.36 100.84 C 141.26 71.94 141.33 43.03 141.32 14.13 C 141.01 6.71 147.44 0.01 154.87 0.00 Z" />
<path fill="#cccccc" opacity="1.00" d=" M 0.45 154.38 C 0.92 147.11 7.82 141.30 15.00 141.76 C 43.68 141.77 72.36 141.70 101.04 141.79 C 108.21 141.66 114.61 147.98 114.64 155.14 C 114.76 183.12 114.64 211.10 114.70 239.08 C 114.73 242.19 114.72 245.45 113.24 248.28 C 111.08 252.88 106.18 255.87 101.14 256.00 L 14.12 256.00 C 8.78 255.95 3.70 252.61 1.57 247.71 C -1.60 236.04 2.02 223.56 0.00 211.66 L 0.00 191.88 C 0.11 182.51 0.34 163.75 0.45 154.38 Z" />
<path fill="#cccccc" opacity="1.00" d=" M 141.36 155.16 C 141.37 148.00 147.78 141.66 154.96 141.79 C 183.98 141.73 213.00 141.72 242.02 141.79 C 248.68 141.74 254.68 147.21 255.48 153.78 C 255.61 161.38 255.87 176.58 256.00 184.18 L 256.00 204.92 C 255.88 214.53 255.64 233.74 255.51 243.35 C 255.27 250.26 248.78 255.89 242.03 256.00 L 155.03 256.00 C 147.56 256.09 141.03 249.37 141.32 241.92 C 141.33 213.00 141.26 184.08 141.36 155.16 Z" />
</g>
</svg>
