<?xml version="1.0" encoding="UTF-8" ?>
<!DOCTYPE svg PUBLIC "-//W3C//DTD SVG 1.1//EN" "http://www.w3.org/Graphics/SVG/1.1/DTD/svg11.dtd">
<svg width="256pt" height="256pt" viewBox="0 0 256 256" version="1.1" xmlns="http://www.w3.org/2000/svg">
<g id="#ccccccff">
<path fill="#cccccc" opacity="1.00" d=" M 103.63 0.00 L 106.40 0.00 C 128.21 0.36 149.93 7.41 167.45 20.46 C 187.16 34.83 201.57 56.29 207.36 79.99 C 214.43 108.05 209.20 138.90 193.20 163.03 C 211.93 181.57 230.50 200.28 249.14 218.91 C 253.31 222.94 255.82 228.51 256.00 234.32 L 256.00 234.73 C 256.07 246.07 246.07 256.06 234.74 256.00 L 234.04 256.00 C 228.34 255.74 222.89 253.25 218.93 249.16 C 200.29 230.51 181.58 211.93 163.03 193.19 C 144.81 205.15 122.83 211.38 101.03 210.31 C 76.18 209.51 51.83 199.27 33.70 182.30 C 12.68 163.06 0.36 134.96 0.00 106.50 L 0.00 103.79 C 0.38 71.94 16.03 40.69 41.55 21.58 C 59.22 7.93 81.35 0.47 103.63 0.00 M 92.49 37.71 C 73.58 41.16 56.47 53.08 46.54 69.52 C 38.20 83.02 34.98 99.47 37.25 115.14 C 39.42 130.76 47.30 145.47 58.98 156.05 C 70.89 166.99 86.79 173.45 102.96 173.91 C 118.67 174.50 134.52 169.43 146.99 159.84 C 157.34 151.94 165.39 141.05 169.80 128.79 C 175.41 113.58 175.33 96.35 169.61 81.18 C 163.52 64.62 150.70 50.71 134.76 43.17 C 121.73 36.90 106.69 35.09 92.49 37.71 Z" />
</g>
</svg>
