<?xml version="1.0" encoding="UTF-8" ?>
<!DOCTYPE svg PUBLIC "-//W3C//DTD SVG 1.1//EN" "http://www.w3.org/Graphics/SVG/1.1/DTD/svg11.dtd">
<svg width="256pt" height="256pt" viewBox="0 0 256 256" version="1.1" xmlns="http://www.w3.org/2000/svg">
<g id="#999999ff">
<path fill="#999999" opacity="1.00" d=" M 125.96 0.00 L 129.15 0.00 C 148.16 0.36 167.03 6.37 182.48 17.48 C 200.04 29.92 213.14 48.51 218.80 69.28 C 224.49 89.95 222.97 112.60 214.16 132.18 C 197.08 168.82 173.69 202.09 148.78 233.79 C 144.24 239.53 139.43 245.07 134.83 250.77 C 133.09 252.86 131.41 255.31 128.61 256.00 L 127.71 256.00 C 124.22 255.42 122.44 252.12 120.30 249.70 C 112.25 240.05 104.28 230.32 96.73 220.27 C 77.15 194.17 58.68 167.02 44.44 137.59 C 35.39 120.43 32.03 100.43 34.73 81.23 C 38.06 56.29 52.08 33.06 72.42 18.28 C 87.83 6.84 106.81 0.58 125.96 0.00 M 123.33 45.53 C 104.38 47.42 87.04 61.08 81.56 79.43 C 77.30 91.22 78.68 104.58 84.19 115.71 C 90.14 127.99 101.51 137.58 114.71 141.17 C 124.28 144.21 134.85 143.71 144.25 140.24 C 167.29 132.65 181.97 105.99 175.38 82.50 C 172.66 71.59 166.09 61.72 157.04 55.04 C 147.44 48.00 135.23 44.32 123.33 45.53 Z" />
</g>
</svg>
