<?xml version="1.0" encoding="UTF-8" ?>
<!DOCTYPE svg PUBLIC "-//W3C//DTD SVG 1.1//EN" "http://www.w3.org/Graphics/SVG/1.1/DTD/svg11.dtd">
<svg width="1058pt" height="1403pt" viewBox="0 0 1058 1403" version="1.1" xmlns="http://www.w3.org/2000/svg">
<g id="#ffffffff">
</g>
<g id="#cc3333ff">
<path fill="#cc3333" opacity="1.00" d=" M 816.70 0.00 L 818.40 0.00 C 824.75 19.61 830.29 39.55 833.50 59.94 C 838.78 91.42 838.91 123.91 832.25 155.20 C 824.16 193.72 805.78 229.26 783.79 261.60 C 811.30 276.59 839.06 291.25 865.18 308.62 C 893.03 326.90 919.54 347.36 943.47 370.57 C 947.72 374.31 951.78 378.28 955.50 382.56 C 978.20 406.07 998.59 432.00 1014.77 460.45 C 1035.60 496.78 1049.19 537.38 1053.22 579.12 C 1058.18 629.49 1050.13 680.78 1031.94 727.91 C 1024.36 748.05 1015.02 767.46 1005.85 786.91 C 1004.82 789.28 1003.09 791.72 1000.25 791.84 C 983.68 793.86 966.92 794.47 950.38 796.51 C 947.92 802.14 946.98 808.31 944.91 814.09 C 928.26 867.83 904.62 919.19 877.12 968.18 C 857.32 1003.45 835.16 1037.40 810.68 1069.60 C 799.09 1085.25 786.19 1099.84 774.11 1115.10 C 769.21 1120.86 764.90 1127.16 759.38 1132.38 C 754.06 1137.74 748.53 1142.90 743.53 1148.57 C 709.65 1180.60 674.86 1211.98 636.22 1238.25 C 603.21 1260.94 568.04 1280.61 531.06 1296.06 C 486.23 1314.71 438.55 1326.99 390.04 1330.39 C 377.37 1331.39 364.65 1330.89 351.95 1331.00 C 336.95 1330.44 321.98 1328.98 307.19 1326.39 C 303.30 1325.55 298.89 1324.82 295.44 1327.37 C 287.39 1333.30 279.59 1339.58 271.76 1345.80 C 250.75 1362.67 233.90 1383.85 214.95 1402.85 C 209.49 1401.66 204.92 1398.35 199.97 1395.97 C 177.79 1384.94 155.69 1373.78 133.50 1362.79 C 136.94 1340.14 140.42 1317.49 143.35 1294.76 C 144.72 1284.26 145.59 1273.63 144.63 1263.05 C 144.48 1257.37 145.12 1250.76 140.66 1246.42 C 94.95 1204.86 61.32 1151.11 39.63 1093.51 C 17.62 1035.28 7.57 973.04 5.50 910.99 C 5.94 901.63 4.34 892.29 5.39 882.96 C 5.54 844.37 9.49 805.84 15.86 767.79 C 30.11 682.76 57.75 600.14 96.23 523.04 C 115.75 484.11 137.63 446.30 162.54 410.56 C 164.55 408.34 162.93 405.60 161.57 403.54 C 153.71 391.92 145.99 380.20 138.56 368.30 C 136.88 365.98 137.20 362.84 138.52 360.44 C 156.57 324.29 175.84 288.20 202.60 257.62 C 232.42 222.42 270.05 193.68 312.48 175.40 C 342.29 162.45 374.25 154.69 406.59 151.69 C 453.23 147.20 500.43 152.00 545.96 162.66 C 588.68 172.70 630.15 187.70 669.90 206.25 C 679.03 210.75 688.42 214.76 697.14 220.04 C 712.04 197.49 727.21 174.55 735.42 148.56 C 741.55 130.39 743.13 110.97 741.51 91.94 C 739.90 70.26 733.99 49.26 727.72 28.55 C 757.38 19.04 787.09 9.68 816.70 0.00 Z" />
</g>
</svg>
