<?xml version="1.0" encoding="UTF-8" ?>
<!DOCTYPE svg PUBLIC "-//W3C//DTD SVG 1.1//EN" "http://www.w3.org/Graphics/SVG/1.1/DTD/svg11.dtd">
<svg width="256pt" height="256pt" viewBox="0 0 256 256" version="1.1" xmlns="http://www.w3.org/2000/svg">
<g id="#ccccccff">
<path fill="#cccccc" opacity="1.00" d=" M 121.38 8.27 C 125.02 5.05 130.97 5.05 134.61 8.26 C 136.53 9.80 137.55 12.11 138.31 14.38 C 146.62 40.02 154.96 65.64 163.28 91.27 C 190.50 91.30 217.73 91.25 244.96 91.30 C 250.67 90.94 255.87 95.69 256.00 101.41 L 256.00 101.72 C 255.87 105.69 253.35 109.04 250.10 111.12 C 228.41 126.84 206.74 142.60 185.06 158.35 C 193.43 184.15 201.83 209.94 210.20 235.74 C 211.70 239.76 210.91 244.68 207.57 247.55 C 203.94 250.97 197.98 250.93 194.14 247.86 C 172.07 231.88 150.06 215.81 128.00 199.82 C 105.95 215.81 83.96 231.86 61.90 247.83 C 57.70 251.28 50.90 250.86 47.46 246.55 C 44.86 243.62 44.51 239.32 45.80 235.74 C 54.17 209.94 62.57 184.14 70.93 158.34 C 48.87 142.29 26.77 126.30 4.73 110.22 C 1.94 108.29 0.19 105.12 0.00 101.73 L 0.00 101.43 C 0.12 95.75 5.25 90.98 10.92 91.30 C 38.19 91.24 65.46 91.31 92.72 91.27 C 101.00 65.80 109.31 40.33 117.57 14.84 C 118.36 12.43 119.33 9.90 121.38 8.27 Z" />
</g>
</svg>
