<?xml version="1.0" encoding="UTF-8" ?>
<!DOCTYPE svg PUBLIC "-//W3C//DTD SVG 1.1//EN" "http://www.w3.org/Graphics/SVG/1.1/DTD/svg11.dtd">
<svg width="256pt" height="256pt" viewBox="0 0 256 256" version="1.1" xmlns="http://www.w3.org/2000/svg">
<g id="#333333ff">
<path fill="#333333" opacity="1.00" d=" M 191.42 0.00 L 196.55 0.00 C 213.83 0.86 230.06 9.79 241.33 22.70 C 250.31 32.94 255.47 46.32 256.00 59.91 L 256.00 63.18 C 255.67 74.67 252.13 86.09 245.58 95.57 C 241.08 102.27 234.93 107.58 229.31 113.30 C 214.35 128.03 199.59 142.96 184.51 157.57 C 171.50 169.68 154.38 179.71 135.99 178.04 C 123.36 177.50 112.01 170.47 103.26 161.76 C 97.76 156.02 97.97 146.06 103.52 140.43 C 108.88 134.47 118.90 133.75 124.99 138.99 C 129.02 142.42 133.20 146.57 138.91 146.48 C 149.50 146.57 157.84 138.94 165.16 132.20 C 181.95 115.63 198.69 99.00 215.42 82.35 C 222.15 75.92 225.49 66.15 223.76 56.96 C 221.87 45.63 212.50 36.70 201.90 33.14 C 194.61 30.62 186.03 32.01 180.22 37.18 C 173.66 42.94 167.87 49.51 161.43 55.39 C 157.26 59.12 151.04 60.31 145.78 58.39 C 138.55 55.96 133.89 47.83 135.54 40.36 C 136.35 35.43 140.11 31.87 143.54 28.57 C 150.04 22.41 155.93 15.55 163.16 10.21 C 171.36 4.19 181.31 0.81 191.42 0.00 Z" />
<path fill="#333333" opacity="1.00" d=" M 111.24 81.17 C 126.72 78.97 142.98 85.03 153.31 96.74 C 158.57 102.96 157.68 113.18 151.44 118.41 C 145.74 123.65 136.20 123.70 130.53 118.41 C 126.86 115.02 122.25 112.15 117.05 112.51 C 105.00 112.86 95.59 121.46 87.22 129.18 C 71.49 144.77 55.74 160.34 40.08 176.01 C 31.06 184.73 29.17 199.61 35.74 210.30 C 42.33 221.70 57.25 227.18 69.66 222.73 C 77.67 220.27 83.09 213.56 88.88 207.94 C 92.64 204.18 96.42 199.70 101.98 198.83 C 109.99 197.09 118.56 202.69 120.33 210.65 C 121.89 216.58 119.37 222.89 114.89 226.87 C 107.34 234.01 100.56 242.21 91.46 247.47 C 82.64 252.78 72.43 255.55 62.17 256.00 L 58.98 256.00 C 43.89 255.54 28.95 249.50 18.19 238.84 C 6.96 228.10 0.38 212.84 0.00 197.33 L 0.00 194.76 C 0.32 179.68 6.50 164.81 17.13 154.08 C 32.44 138.73 47.90 123.53 63.26 108.23 C 76.25 95.02 92.44 83.59 111.24 81.17 Z" />
</g>
</svg>
