<?xml version="1.0" encoding="UTF-8" ?>
<!DOCTYPE svg PUBLIC "-//W3C//DTD SVG 1.1//EN" "http://www.w3.org/Graphics/SVG/1.1/DTD/svg11.dtd">
<svg width="1058pt" height="1403pt" viewBox="0 0 1058 1403" version="1.1" xmlns="http://www.w3.org/2000/svg">
<g id="#ffffffff">
</g>
<g id="#cccc33ff">
<path fill="#cccc33" opacity="1.00" d=" M 816.68 0.00 L 818.60 0.00 C 820.23 6.81 822.79 13.36 824.54 20.14 C 837.02 63.57 841.82 109.99 832.40 154.51 C 824.38 193.29 805.91 229.06 783.80 261.60 C 812.41 277.19 841.30 292.45 868.34 310.72 C 895.05 328.43 920.43 348.25 943.47 370.57 C 947.52 374.16 951.43 377.91 954.99 382.00 C 981.04 409.03 1004.27 439.14 1021.35 472.68 C 1043.64 515.41 1055.52 563.72 1054.50 611.96 C 1054.65 636.15 1051.16 660.26 1045.65 683.78 C 1037.19 720.35 1021.40 754.63 1005.14 788.27 C 1004.12 790.76 1001.55 791.91 999.01 792.05 C 983.34 793.60 967.63 794.79 951.94 796.14 C 950.05 795.92 949.71 797.89 949.22 799.24 C 940.76 829.88 929.59 859.72 916.89 888.84 C 885.45 959.83 845.23 1027.04 796.61 1087.62 C 786.96 1099.32 777.26 1110.97 767.83 1122.85 C 761.40 1131.35 753.05 1138.10 745.92 1145.96 C 741.43 1151.12 736.04 1155.37 731.17 1160.15 C 723.30 1167.29 715.71 1174.74 707.59 1181.61 C 650.69 1233.17 585.25 1276.09 513.16 1303.14 C 469.88 1319.09 424.24 1329.34 378.06 1330.99 C 365.69 1330.87 353.31 1331.42 340.97 1330.42 C 328.21 1329.63 315.52 1327.90 302.93 1325.70 C 297.36 1324.63 293.15 1329.09 289.12 1332.14 C 276.74 1341.66 264.42 1351.30 253.35 1362.34 C 240.29 1375.58 228.05 1389.60 214.99 1402.83 C 209.50 1401.70 204.95 1398.34 199.98 1395.97 C 177.80 1384.95 155.70 1373.78 133.51 1362.80 C 137.27 1337.39 141.40 1312.02 144.29 1286.49 C 145.62 1275.72 144.73 1264.89 144.30 1254.10 C 143.87 1249.39 140.49 1245.83 136.97 1243.05 C 110.39 1218.09 87.90 1188.91 69.70 1157.35 C 41.94 1109.16 24.11 1055.64 14.62 1000.95 C 8.77 967.32 5.58 933.19 5.38 899.06 C 4.87 893.74 4.89 888.39 5.38 883.08 C 5.55 844.50 9.46 805.97 15.84 767.94 C 29.43 686.85 55.13 607.91 90.91 533.92 C 111.65 491.07 135.39 449.60 162.57 410.50 C 165.18 407.00 161.23 403.48 159.56 400.53 C 152.38 389.96 145.42 379.23 138.62 368.42 C 136.68 365.80 137.36 362.36 138.85 359.71 C 152.25 333.14 166.05 306.62 183.28 282.28 C 201.29 257.05 222.52 234.03 246.85 214.77 C 284.75 184.51 330.37 164.17 378.08 155.61 C 429.68 146.22 482.93 149.28 534.08 160.01 C 574.81 168.64 614.48 181.89 652.65 198.47 C 667.67 205.23 682.82 211.85 697.14 220.04 C 713.13 195.92 729.33 171.19 737.11 142.99 C 744.18 118.64 742.99 92.67 738.13 68.02 C 735.65 54.61 731.45 41.63 727.74 28.53 C 757.40 19.05 787.09 9.68 816.68 0.00 Z" />
</g>
</svg>
